<svg id="Layer_1" height="100" viewBox="0 0 150 150" width="100" fill="#ffffff" xmlns="http://www.w3.org/2000/svg" data-name="Layer 1"><path d="m47.549 140h-32.738a4.816 4.816 0 0 1 -4.811-4.811v-5.551c0-5.68 4.264-10.3 9.5-10.3h5.573a1 1 0 0 1 .774.367 6.858 6.858 0 0 0 5.323 2.52 6.86 6.86 0 0 0 5.33-2.525 1 1 0 0 1 .773-.367h5.573c5.247 0 9.515 4.622 9.515 10.3v5.552a4.816 4.816 0 0 1 -4.812 4.815zm-28.049-18.664c-4.138 0-7.5 3.725-7.5 8.3v5.551a2.814 2.814 0 0 0 2.811 2.813h32.738a2.813 2.813 0 0 0 2.81-2.81v-5.552c0-4.577-3.371-8.3-7.515-8.3h-5.115a8.849 8.849 0 0 1 -6.555 2.887 8.85 8.85 0 0 1 -6.553-2.887z"/><path d="m45.19 140h-28.02a1 1 0 0 1 -1-1v-10.012a1 1 0 0 1 2 0v9.012h26.02v-9.012a1 1 0 0 1 2 0v10.012a1 1 0 0 1 -1 1z"/><path d="m31.178 118.372c-7.294 0-13.008-7.952-13.008-18.1 0-6.087 5.562-12.895 13.008-12.895s13.008 6.808 13.008 12.895c0 10.148-5.714 18.1-13.008 18.1zm0-29c-6.3 0-11.008 5.751-11.008 10.895 0 8.878 4.938 16.1 11.008 16.1s11.008-7.224 11.008-16.1c0-5.141-4.708-10.892-11.008-10.892z"/><path d="m43.051 103.873c-7.931 0-11.855-4.574-13.352-6.934-4.022 4.185-10.155 4.756-10.436 4.781a1 1 0 0 1 -.172-1.993c.066-.006 6.619-.632 9.986-5.138a1 1 0 0 1 1.723.211c.123.286 3.153 7.076 12.252 7.076a1 1 0 0 1 0 2z"/><path d="m91.513 62.625h-32.739a4.816 4.816 0 0 1 -4.81-4.81v-5.552c0-5.68 4.264-10.3 9.5-10.3h5.573a1 1 0 0 1 .773.366 6.883 6.883 0 0 0 10.647 0 1 1 0 0 1 .773-.366h5.574c5.247 0 9.515 4.621 9.515 10.3v5.552a4.815 4.815 0 0 1 -4.806 4.81zm-28.045-18.663c-4.138 0-7.5 3.724-7.5 8.3v5.552a2.813 2.813 0 0 0 2.81 2.81h32.735a2.813 2.813 0 0 0 2.81-2.81v-5.551c0-4.577-3.371-8.3-7.515-8.3h-5.117a8.884 8.884 0 0 1 -13.107 0z"/><path d="m89.153 62.625h-28.019a1 1 0 0 1 -1-1v-10.012a1 1 0 0 1 2 0v9.012h26.019v-9.012a1 1 0 0 1 2 0v10.012a1 1 0 0 1 -1 1z"/><path d="m75.142 41c-7.3 0-13.009-7.951-13.009-18.1 0-6.092 5.567-12.9 13.009-12.9s13.007 6.808 13.007 12.9c0 10.146-5.713 18.1-13.007 18.1zm0-29c-6.3 0-11.009 5.752-11.009 10.9 0 8.879 4.938 16.1 11.009 16.1s11.007-7.223 11.007-16.1c0-5.148-4.708-10.9-11.007-10.9z"/><path d="m87.015 26.5c-7.932 0-11.856-4.575-13.352-6.934-4.022 4.184-10.156 4.756-10.437 4.78a1 1 0 0 1 -.172-1.992c.066-.006 6.62-.633 9.987-5.139a1 1 0 0 1 1.722.209c.123.286 3.152 7.076 12.252 7.076a1 1 0 0 1 0 2z"/><path d="m135.189 140h-32.738a4.816 4.816 0 0 1 -4.81-4.811v-5.551c0-5.68 4.263-10.3 9.5-10.3h5.573a1 1 0 0 1 .773.367 6.859 6.859 0 0 0 5.323 2.52 6.862 6.862 0 0 0 5.325-2.52 1 1 0 0 1 .773-.367h5.572c5.247 0 9.516 4.622 9.516 10.3v5.552a4.816 4.816 0 0 1 -4.807 4.81zm-28.044-18.664c-4.138 0-7.5 3.725-7.5 8.3v5.551a2.813 2.813 0 0 0 2.81 2.811h32.738a2.814 2.814 0 0 0 2.807-2.808v-5.552c0-4.577-3.371-8.3-7.516-8.3h-5.115a8.849 8.849 0 0 1 -6.555 2.887 8.847 8.847 0 0 1 -6.552-2.887z"/><path d="m132.83 140h-28.019a1 1 0 0 1 -1-1v-10.012a1 1 0 0 1 2 0v9.012h26.019v-9.012a1 1 0 0 1 2 0v10.012a1 1 0 0 1 -1 1z"/><path d="m118.818 118.372c-7.3 0-13.008-7.952-13.008-18.1 0-6.087 5.563-12.895 13.008-12.895s13.008 6.808 13.008 12.895c0 10.148-5.714 18.1-13.008 18.1zm0-29c-6.3 0-11.008 5.751-11.008 10.895 0 8.878 4.938 16.1 11.008 16.1s11.008-7.224 11.008-16.1c0-5.141-4.708-10.892-11.008-10.892z"/><path d="m130.691 103.873c-7.931 0-11.855-4.574-13.351-6.934-4.023 4.185-10.156 4.756-10.438 4.781a1 1 0 0 1 -.172-1.993c.067-.006 6.621-.632 9.988-5.138a1 1 0 0 1 1.721.209c.123.286 3.153 7.075 12.252 7.075a1 1 0 0 1 0 2z"/><path d="m75.144 110.826a19.269 19.269 0 1 1 19.268-19.269 19.291 19.291 0 0 1 -19.268 19.269zm0-36.537a17.269 17.269 0 1 0 17.268 17.268 17.288 17.288 0 0 0 -17.268-17.268z"/><path d="m75.144 106.9a15.345 15.345 0 1 1 15.344-15.343 15.362 15.362 0 0 1 -15.344 15.343zm0-28.69a13.345 13.345 0 1 0 13.344 13.347 13.36 13.36 0 0 0 -13.344-13.345z"/><path d="m75.144 101.444a5.45 5.45 0 0 1 -5.444-5.444 1 1 0 0 1 2 0 3.444 3.444 0 1 0 3.444-3.444 5.444 5.444 0 1 1 5.443-5.443 1 1 0 0 1 -2 0 3.444 3.444 0 1 0 -3.443 3.443 5.444 5.444 0 0 1 0 10.887z"/><path d="m75.144 83.67a1 1 0 0 1 -1-1v-1.27a1 1 0 0 1 2 0v1.27a1 1 0 0 1 -1 1z"/><path d="m75.144 102.714a1 1 0 0 1 -1-1v-1.27a1 1 0 0 1 2 0v1.27a1 1 0 0 1 -1 1z"/><path d="m46.733 122.366a1 1 0 0 1 -.733-1.682l15.637-16.749a1 1 0 1 1 1.463 1.365l-15.635 16.749a1 1 0 0 1 -.732.317z"/><path d="m103.553 122.366a1 1 0 0 1 -.732-.317l-15.636-16.749a1 1 0 1 1 1.462-1.365l15.637 16.749a1 1 0 0 1 -.731 1.682z"/><path d="m75.144 74.289a1 1 0 0 1 -1-1v-11.664a1 1 0 0 1 2 0v11.664a1 1 0 0 1 -1 1z"/></svg>