<?xml version="1.0" encoding="UTF-8"?>
<svg xmlns="http://www.w3.org/2000/svg" id="Layer_1" data-name="Layer 1" viewBox="0 0 150 150" width="100" height="100" fill="#ffffff"><path d="M82.26,140H67.74a1,1,0,0,1-.983-.813l-2.845-14.936a50.213,50.213,0,0,1-8.885-2.893L43.94,131.774a1,1,0,0,1-1.272.08L30.92,123.319a1,1,0,0,1-.317-1.235l6.482-13.764a50.617,50.617,0,0,1-5.487-7.557l-15.1,1.912a1,1,0,0,1-1.077-.683L10.938,88.181A1,1,0,0,1,11.407,87l13.332-7.324c-.145-1.563-.218-3.131-.218-4.672s.073-3.109.218-4.671L11.407,63.005a1,1,0,0,1-.469-1.186l4.487-13.81a.991.991,0,0,1,1.077-.683l15.1,1.911a50.759,50.759,0,0,1,5.487-7.557L30.6,27.917a1,1,0,0,1,.317-1.235l11.748-8.536a1,1,0,0,1,1.272.081L55.026,28.643a50.115,50.115,0,0,1,8.886-2.893l2.845-14.937A1,1,0,0,1,67.74,10H82.26a1,1,0,0,1,.983.813L86.088,25.75a50.115,50.115,0,0,1,8.886,2.893L106.06,18.227a1,1,0,0,1,1.272-.081l11.748,8.536a1,1,0,0,1,.317,1.235L112.916,41.68a50.773,50.773,0,0,1,5.486,7.557l15.1-1.911a1,1,0,0,1,1.076.683l4.487,13.81a1,1,0,0,1-.469,1.186l-13.331,7.324c.144,1.564.217,3.132.217,4.671s-.073,3.108-.217,4.672L138.593,87a1,1,0,0,1,.469,1.185l-4.487,13.811a1,1,0,0,1-1.076.683l-15.1-1.912a50.734,50.734,0,0,1-5.486,7.557l6.481,13.764a1,1,0,0,1-.317,1.235l-11.748,8.535a1,1,0,0,1-1.272-.08L94.974,121.358a50.2,50.2,0,0,1-8.886,2.893l-2.845,14.936A1,1,0,0,1,82.26,140Zm-13.693-2H81.433l2.814-14.772a1,1,0,0,1,.777-.792,48.266,48.266,0,0,0,9.745-3.172,1,1,0,0,1,1.093.183l10.964,10.3,10.409-7.563-6.41-13.613a1,1,0,0,1,.163-1.095,48.814,48.814,0,0,0,6.019-8.291A1,1,0,0,1,118,98.7l14.931,1.89,3.976-12.236L123.72,81.107a1,1,0,0,1-.513-.981,48.428,48.428,0,0,0,0-10.251,1,1,0,0,1,.513-.981l13.185-7.244-3.976-12.236L118,51.3a1,1,0,0,1-.991-.492,48.8,48.8,0,0,0-6.019-8.29,1,1,0,0,1-.163-1.1l6.41-13.613-10.409-7.562-10.964,10.3a1,1,0,0,1-1.093.184,48.269,48.269,0,0,0-9.745-3.173,1,1,0,0,1-.777-.791L81.433,12H68.567L65.753,26.773a1,1,0,0,1-.777.791,48.24,48.24,0,0,0-9.744,3.173,1,1,0,0,1-1.093-.184l-10.965-10.3L32.765,27.813l6.411,13.613a1,1,0,0,1-.163,1.1,48.692,48.692,0,0,0-6.02,8.29A1,1,0,0,1,32,51.3l-14.93-1.89L13.1,61.65,26.28,68.894a1,1,0,0,1,.513.981,48.418,48.418,0,0,0,0,10.25,1,1,0,0,1-.513.982L13.1,88.35l3.977,12.236L32,98.7a1,1,0,0,1,.991.492,48.692,48.692,0,0,0,6.02,8.29,1,1,0,0,1,.163,1.1l-6.411,13.613,10.409,7.563,10.965-10.3a1,1,0,0,1,1.093-.183,48.278,48.278,0,0,0,9.744,3.172,1,1,0,0,1,.777.792Z"/><path d="M75,116.333A41.333,41.333,0,1,1,116.333,75,41.379,41.379,0,0,1,75,116.333Zm0-80.666A39.333,39.333,0,1,0,114.333,75,39.378,39.378,0,0,0,75,35.667Z"/><path d="M75,45.579a1,1,0,0,1-1-1V40.648a1,1,0,1,1,2,0v3.931A1,1,0,0,1,75,45.579Z"/><path d="M59.79,49.655a1,1,0,0,1-.867-.5l-1.965-3.4a1,1,0,0,1,1.732-1l1.966,3.4a1,1,0,0,1-.866,1.5Z"/><path d="M48.654,60.79a.992.992,0,0,1-.5-.134l-3.4-1.966a1,1,0,0,1,1-1.732l3.4,1.965a1,1,0,0,1-.5,1.867Z"/><path d="M44.579,76H40.648a1,1,0,1,1,0-2h3.931a1,1,0,1,1,0,2Z"/><path d="M45.252,93.176a1,1,0,0,1-.5-1.866l3.4-1.965a1,1,0,1,1,1,1.732l-3.4,1.965A1,1,0,0,1,45.252,93.176Z"/><path d="M57.823,105.75a1,1,0,0,1-.865-1.5l1.966-3.4a1,1,0,1,1,1.732,1l-1.965,3.4A1,1,0,0,1,57.823,105.75Z"/><path d="M75,110.352a1,1,0,0,1-1-1v-3.931a1,1,0,1,1,2,0v3.931A1,1,0,0,1,75,110.352Z"/><path d="M92.177,105.75a1,1,0,0,1-.867-.5l-1.966-3.4a1,1,0,1,1,1.733-1l1.965,3.4a1,1,0,0,1-.865,1.5Z"/><path d="M104.749,93.176a.992.992,0,0,1-.5-.134l-3.405-1.965a1,1,0,0,1,1-1.733l3.405,1.966a1,1,0,0,1-.5,1.866Z"/><path d="M109.352,76h-3.931a1,1,0,1,1,0-2h3.931a1,1,0,0,1,0,2Z"/><path d="M101.346,60.79a1,1,0,0,1-.5-1.867l3.405-1.965a1,1,0,1,1,1,1.732l-3.405,1.966A.992.992,0,0,1,101.346,60.79Z"/><path d="M90.21,49.655a1,1,0,0,1-.866-1.5L91.31,44.75a1,1,0,1,1,1.732,1l-1.965,3.405A1,1,0,0,1,90.21,49.655Z"/><path d="M90.556,76H78.589a1,1,0,0,1,0-2H90.556a1,1,0,0,1,0,2Z"/><path d="M74.056,72.545a1,1,0,0,1-.964-.738L66.857,48.92a1,1,0,1,1,1.93-.525l6.234,22.887a1,1,0,0,1-.965,1.263Z"/><path d="M75,79.589a4.585,4.585,0,0,1-1.2-9.01,4.081,4.081,0,0,1,1.2-.168,4.589,4.589,0,0,1,0,9.178Zm0-7.178a2.17,2.17,0,0,0-.646.089A2.565,2.565,0,1,0,75,72.411Z"/></svg>
