<svg id="Layer_1" viewBox="0 0 150 150" fill="#025add" xmlns="http://www.w3.org/2000/svg" data-name="Layer 1"><path d="m75 115.7a40.7 40.7 0 1 1 40.7-40.7 40.751 40.751 0 0 1 -40.7 40.7zm0-79.4a38.7 38.7 0 1 0 38.7 38.7 38.749 38.749 0 0 0 -38.7-38.7z"/><path d="m75 108.841a33.841 33.841 0 1 1 33.841-33.841 33.879 33.879 0 0 1 -33.841 33.841zm0-65.682a31.841 31.841 0 1 0 31.841 31.841 31.877 31.877 0 0 0 -31.841-31.841z"/><path d="m75 96.973a11.5 11.5 0 0 1 -11.487-11.487 1 1 0 0 1 2 0 9.487 9.487 0 1 0 9.487-9.486 11.487 11.487 0 1 1 11.486-11.486 1 1 0 0 1 -2 0 9.487 9.487 0 1 0 -9.486 9.486 11.487 11.487 0 0 1 0 22.973z"/><path d="m75 99.49a1 1 0 0 1 -1-1v-46.98a1 1 0 1 1 2 0v46.98a1 1 0 0 1 -1 1z"/><path d="m75 29.63a1 1 0 0 1 -1-1v-17.63a1 1 0 0 1 2 0v17.63a1 1 0 0 1 -1 1z"/><path d="m79.94 17.926a1 1 0 0 1 -.77-.36l-4.17-5-4.171 5a1 1 0 1 1 -1.537-1.281l4.939-5.925a1.034 1.034 0 0 1 1.537 0l4.94 5.925a1 1 0 0 1 -.768 1.641z"/><path d="m47.745 38.486a1 1 0 0 1 -.81-.413l-10.362-14.262a1 1 0 1 1 1.617-1.176l10.362 14.265a1 1 0 0 1 -.807 1.588z"/><path d="m36.87 31.92h-.068a1 1 0 0 1 -.931-1.064l.512-7.7a1 1 0 0 1 1.243-.9l7.48 1.891a1 1 0 1 1 -.49 1.939l-6.317-1.6-.432 6.5a1 1 0 0 1 -.997.934z"/><path d="m30.9 61.671a1.007 1.007 0 0 1 -.309-.049l-16.767-5.448a1 1 0 1 1 .617-1.9l16.767 5.447a1 1 0 0 1 -.309 1.952z"/><path d="m18.243 62.752a1 1 0 0 1 -.848-.468l-4.109-6.528a1 1 0 0 1 .475-1.462l7.162-2.866a1 1 0 0 1 .743 1.857l-6.048 2.421 3.47 5.513a1 1 0 0 1 -.845 1.533z"/><path d="m14.132 95.777a1 1 0 0 1 -.308-1.951l16.766-5.448a1 1 0 1 1 .618 1.9l-16.767 5.45a1.007 1.007 0 0 1 -.309.049z"/><path d="m21.294 98.644a.987.987 0 0 1 -.371-.072l-7.162-2.866a1 1 0 0 1 -.475-1.462l4.114-6.528a1 1 0 1 1 1.693 1.065l-3.47 5.513 6.048 2.421a1 1 0 0 1 -.372 1.929z"/><path d="m37.38 127.777a1 1 0 0 1 -.807-1.588l10.362-14.262a1 1 0 1 1 1.617 1.175l-10.362 14.263a1 1 0 0 1 -.81.412z"/><path d="m37.381 127.777a1 1 0 0 1 -1-.933l-.512-7.7a1 1 0 0 1 2-.133l.432 6.5 6.317-1.6a1 1 0 1 1 .49 1.938l-7.48 1.892a1.021 1.021 0 0 1 -.247.036z"/><path d="m75 140a1 1 0 0 1 -1-1v-17.63a1 1 0 0 1 2 0v17.63a1 1 0 0 1 -1 1z"/><path d="m75 140a1 1 0 0 1 -.769-.36l-4.939-5.926a1 1 0 1 1 1.537-1.28l4.171 5 4.17-5a1 1 0 0 1 1.538 1.28l-4.94 5.926a1 1 0 0 1 -.768.36z"/><path d="m112.619 127.777a1 1 0 0 1 -.81-.412l-10.362-14.265a1 1 0 1 1 1.617-1.175l10.362 14.262a1 1 0 0 1 -.807 1.588z"/><path d="m112.618 127.777a1.021 1.021 0 0 1 -.245-.03l-7.479-1.892a1 1 0 1 1 .49-1.938l6.316 1.6.432-6.5a1.01 1.01 0 0 1 1.065-.931 1 1 0 0 1 .931 1.064l-.512 7.7a1 1 0 0 1 -1 .933z"/><path d="m135.868 95.777a1.007 1.007 0 0 1 -.309-.049l-16.767-5.448a1 1 0 1 1 .617-1.9l16.767 5.448a1 1 0 0 1 -.308 1.951z"/><path d="m128.705 98.644a1 1 0 0 1 -.372-1.929l6.049-2.421-3.471-5.513a1 1 0 1 1 1.693-1.065l4.11 6.528a1 1 0 0 1 -.475 1.462l-7.163 2.866a1.007 1.007 0 0 1 -.371.072z"/><path d="m119.1 61.671a1 1 0 0 1 -.308-1.952l16.767-5.447a1 1 0 1 1 .617 1.9l-16.767 5.448a1.007 1.007 0 0 1 -.309.051z"/><path d="m131.756 62.752a1 1 0 0 1 -.845-1.533l3.471-5.513-6.049-2.421a1 1 0 1 1 .743-1.857l7.163 2.866a1 1 0 0 1 .475 1.462l-4.11 6.528a1 1 0 0 1 -.848.468z"/><path d="m102.254 38.486a1 1 0 0 1 -.807-1.588l10.362-14.263a1 1 0 1 1 1.617 1.176l-10.362 14.262a1 1 0 0 1 -.81.413z"/><path d="m113.129 31.92a1 1 0 0 1 -1-.933l-.432-6.5-6.316 1.6a1 1 0 1 1 -.49-1.939l7.479-1.891a1 1 0 0 1 1.243.9l.512 7.7a1 1 0 0 1 -.931 1.064z"/></svg>