<svg id="Layer_1" viewBox="0 0 150 150" fill="#025add" xmlns="http://www.w3.org/2000/svg" data-name="Layer 1"><path d="m94.466 110.391h-38.917a1 1 0 0 1 -.994-.883c-1.239-10.462-5.2-15.017-11.765-22.564-.655-.753-1.334-1.534-2.038-2.353a45.158 45.158 0 1 1 68.74-.284c-.848 1-1.662 1.949-2.442 2.856-6.446 7.493-10.335 12.016-11.591 22.348a1 1 0 0 1 -.993.88zm-38.037-2h37.159c1.448-10.327 5.659-15.223 11.945-22.532.777-.9 1.588-1.846 2.432-2.844a43.161 43.161 0 1 0 -65.7.272q1.055 1.223 2.035 2.344c6.4 7.369 10.694 12.297 12.129 22.76z"/><path d="m76.588 140h-3.179a7.206 7.206 0 0 1 -7.2-7.2v-.517a1 1 0 0 1 2 0v.517a5.2 5.2 0 0 0 5.2 5.2h3.179a5.21 5.21 0 0 0 5.21-5.2v-.443a1 1 0 0 1 2 0v.443a7.213 7.213 0 0 1 -7.21 7.2z"/><path d="m76.036 134.943h-2.071a19.525 19.525 0 0 1 -19.5-19.5v-6.05a1 1 0 0 1 1-1h39.074a1 1 0 0 1 1 1v6.05a19.525 19.525 0 0 1 -19.503 19.5zm-19.573-24.552v5.05a17.522 17.522 0 0 0 17.5 17.5h2.071a17.523 17.523 0 0 0 17.5-17.5v-5.05z"/><path d="m94.5 116.6h-39a1 1 0 0 1 0-2h39a1 1 0 1 1 0 2z"/><path d="m93.146 122.661h-36.295a1 1 0 0 1 0-2h36.3a1 1 0 1 1 0 2z"/><path d="m89.27 128.744h-28.543a1 1 0 0 1 0-2h28.543a1 1 0 1 1 0 2z"/><path d="m80.557 69.3a.991.991 0 0 1 -.588-.192l-.666-.486a7.315 7.315 0 0 0 -8.6 0l-.531.382a1 1 0 1 1 -1.172-1.619l.528-.38a9.311 9.311 0 0 1 10.949 0l.668.487a1 1 0 0 1 -.591 1.808z"/><path d="m86.535 110.391h-23.063a1 1 0 0 1 -.982-.815l-5.49-29.162-.758-.8a8.1 8.1 0 0 1 -.6-.7 7.231 7.231 0 0 1 .079-9.369 7.721 7.721 0 0 1 9.53-2.176 1 1 0 0 1 -.912 1.78 5.685 5.685 0 0 0 -7.068 1.66 5.252 5.252 0 0 0 -.05 6.878 6.351 6.351 0 0 0 .474.549l.961 1.014a1 1 0 0 1 .257.5l5.387 28.641h21.4l5.4-28.637a1 1 0 0 1 .257-.5l.961-1.014a5.752 5.752 0 0 0 .453-.524 5.265 5.265 0 0 0 .024-6.844 5.773 5.773 0 0 0 -6.983-1.782 1 1 0 0 1 -.869-1.8 7.734 7.734 0 0 1 9.417 2.338 7.245 7.245 0 0 1 -.008 9.315 7.948 7.948 0 0 1 -.583.675l-.757.8-5.491 29.162a1 1 0 0 1 -.986.811z"/><path d="m67.211 73.842a3.929 3.929 0 1 1 3.928-3.928 3.933 3.933 0 0 1 -3.928 3.928zm0-5.857a1.929 1.929 0 1 0 1.928 1.929 1.931 1.931 0 0 0 -1.928-1.929z"/><path d="m83.009 73.842a3.929 3.929 0 1 1 3.927-3.928 3.933 3.933 0 0 1 -3.927 3.928zm0-5.857a1.929 1.929 0 1 0 1.927 1.929 1.931 1.931 0 0 0 -1.927-1.929z"/><path d="m38.812 45.124a1.029 1.029 0 0 1 -.292-.044 1 1 0 0 1 -.664-1.249 38.575 38.575 0 0 1 7.517-13.7 1 1 0 1 1 1.527 1.292 36.591 36.591 0 0 0 -7.132 12.993 1 1 0 0 1 -.956.708z"/><path d="m57.4 22.708a1 1 0 0 1 -.469-1.885 38.261 38.261 0 0 1 14.457-4.31 1 1 0 0 1 .182 1.992 36.238 36.238 0 0 0 -13.7 4.086 1 1 0 0 1 -.47.117z"/><path d="m112.647 52.692a1 1 0 0 1 -1-.909 36.9 36.9 0 0 0 -21.575-30.2 1 1 0 1 1 .822-1.823 38.9 38.9 0 0 1 22.75 31.84 1 1 0 0 1 -.905 1.087c-.03.003-.062.005-.092.005z"/></svg>