<svg id="Layer_1" viewBox="0 0 150 150" fill="#025add" xmlns="http://www.w3.org/2000/svg" data-name="Layer 1"><path d="m104.771 78.873a7.257 7.257 0 0 1 -1.141-.09l-4.3-.678a1 1 0 1 1 .312-1.975l4.3.678c2.3.364 4.488-.776 4.884-2.536l3.282-14.991a2.55 2.55 0 0 0 -.434-1.994 4.372 4.372 0 0 0 -2.96-1.719l-3.622-.568a1 1 0 1 1 .311-1.975l3.622.571a6.37 6.37 0 0 1 4.3 2.564 4.541 4.541 0 0 1 .739 3.549l-3.283 15c-.553 2.45-3.125 4.164-6.01 4.164z"/><path d="m45.223 78.873c-2.883 0-5.456-1.713-6-4.163l-3.285-15a4.552 4.552 0 0 1 .739-3.553 6.375 6.375 0 0 1 4.3-2.563l3.622-.571a1 1 0 1 1 .301 1.977l-3.623.572a4.367 4.367 0 0 0 -2.959 1.719 2.546 2.546 0 0 0 -.434 2l3.283 14.993c.394 1.756 2.581 2.895 4.882 2.531l4.3-.678a1 1 0 1 1 .312 1.975l-4.3.678a7.26 7.26 0 0 1 -1.138.083z"/><path d="m39.926 74.257a1.127 1.127 0 0 1 -.116-.006 6.11 6.11 0 0 1 -5.52-4.4l-.936-4.272c-.511-2.357.837-4.741 3.356-5.933a1 1 0 0 1 .855 1.808 3.469 3.469 0 0 0 -2.257 3.7l.936 4.271a4.136 4.136 0 0 0 3.794 2.844 1 1 0 0 1 -.112 1.993z"/><path d="m111.959 57.076a1 1 0 0 1 -1-1v-10.526c0-19.126-15.465-33.55-35.973-33.55s-35.953 14.424-35.953 33.55v10.526a1 1 0 1 1 -2 0v-10.526c0-20.267 16.316-35.55 37.953-35.55s37.973 15.283 37.973 35.55v10.526a1 1 0 0 1 -1 1z"/><path d="m108.02 55.441a1 1 0 0 1 -1-1v-8.891c0-16.881-13.771-29.612-32.034-29.612s-32.014 12.731-32.014 29.612v8.891a1 1 0 0 1 -2 0v-8.891c0-18.021 14.623-31.612 34.014-31.612s34.034 13.591 34.034 31.612v8.891a1 1 0 0 1 -1 1z"/><path d="m93.711 85.485h-14.033a1 1 0 0 1 0-2h14.033a9.908 9.908 0 0 0 8.861-5.548 1 1 0 1 1 1.8.874 11.919 11.919 0 0 1 -10.661 6.674z"/><path d="m76.223 88.941a4.456 4.456 0 1 1 4.455-4.456 4.461 4.461 0 0 1 -4.455 4.456zm0-6.911a2.456 2.456 0 1 0 2.455 2.455 2.459 2.459 0 0 0 -2.455-2.455z"/><path d="m75 95.568c-17.541 0-31.281-19.21-31.281-43.733 0-14.5 13.377-30.722 31.281-30.722s31.281 16.22 31.281 30.722c-.002 24.523-13.743 43.733-31.281 43.733zm0-72.455c-16.759 0-29.281 15.164-29.281 28.722 0 23.4 12.862 41.733 29.281 41.733s29.281-18.331 29.281-41.733c-.002-13.558-12.524-28.722-29.281-28.722z"/><path d="m98.3 53.5c-10.926 0-21.43-4.644-26.537-12.135-6.276 4.677-17.092 12.196-27.063 6.635a1 1 0 0 1 .974-1.747c9.31 5.189 20.005-2.83 25.751-7.137a1 1 0 0 1 1.456.284c5.457 9.039 19.3 13.962 32.209 11.449a1 1 0 0 1 .381 1.963 37.519 37.519 0 0 1 -7.171.688z"/><path d="m126.387 139.989h-102.774a1 1 0 0 1 -1-1v-18.068c0-13.62 10.169-24.7 22.669-24.7h1.906a13.408 13.408 0 0 0 12.13-7.47 1 1 0 1 1 1.794.885 15.4 15.4 0 0 1 -13.924 8.585h-1.906c-11.4 0-20.669 10.184-20.669 22.7v17.068h100.774v-17.068c0-12.518-9.272-22.7-20.669-22.7h-1.906a15.4 15.4 0 0 1 -13.924-8.585 1 1 0 1 1 1.794-.885 13.408 13.408 0 0 0 12.13 7.47h1.906c12.5 0 22.669 11.082 22.669 24.7v18.068a1 1 0 0 1 -1 1z"/><path d="m42.753 140a1 1 0 0 1 -1-1v-17.835a1 1 0 0 1 2 0v17.835a1 1 0 0 1 -1 1z"/><path d="m107.242 140a1 1 0 0 1 -1-1v-17.835a1 1 0 0 1 2 0v17.835a1 1 0 0 1 -1 1z"/><path d="m64.515 114a1 1 0 0 1 -.769-.361l-13.538-16.273a1 1 0 0 1 1.537-1.279l12.961 15.576 8.484-5.7-17.23-11.249a1 1 0 0 1 1.094-1.675l18.493 12.073a1 1 0 0 1 .011 1.667l-10.486 7.048a1 1 0 0 1 -.557.173z"/><path d="m85.485 114a1 1 0 0 1 -.557-.17l-10.485-7.048a1 1 0 0 1 .01-1.667l18.493-12.076a1 1 0 0 1 1.094 1.675l-17.229 11.247 8.483 5.7 12.961-15.574a1 1 0 1 1 1.537 1.279l-13.538 16.27a1 1 0 0 1 -.769.364z"/><path d="m110.07 74.257a1 1 0 0 1 -.113-1.993 4.139 4.139 0 0 0 3.8-2.843l.935-4.274a3.467 3.467 0 0 0 -2.257-3.7 1 1 0 0 1 .855-1.808c2.519 1.192 3.868 3.576 3.356 5.931l-.935 4.275a6.113 6.113 0 0 1 -5.52 4.4 1.141 1.141 0 0 1 -.121.012z"/></svg>