<svg id="Layer_1" fill="#025add" viewBox="0 0 150 150" xmlns="http://www.w3.org/2000/svg" data-name="Layer 1"><path d="m47.672 46.836a.955.955 0 0 1 -.184-.017 1 1 0 0 1 -.816-1.025 17.424 17.424 0 0 0 -1.955-7.749c-5.818 2.414-11.655 1.579-17.371-2.489-1.992 1.745-4.125 5.909-4.441 10.351a1 1 0 0 1 -1.965.182c-3.009-11.509-1.04-19.156 5.56-21.551 6.088-3.879 11.881-3.905 17.215-.075a6.844 6.844 0 0 0 3.931 1.315 3.944 3.944 0 0 1 3.067 1.063 2.366 2.366 0 0 1 .515 1.943 7.266 7.266 0 0 1 -1.141 3.065c-.366.6-.408.692-.283 1.051.6 1.726.721 7.632-1.182 13.257a1 1 0 0 1 -.95.679zm-12.238-23.229a14.757 14.757 0 0 0 -7.954 2.675.991.991 0 0 1 -.209.1c-5.79 2.035-6.2 8.764-5.363 14.505 1.083-3.244 2.9-6.111 4.874-7.417a1 1 0 0 1 1.153.036c5.633 4.243 11.127 5.009 16.8 2.343a1 1 0 0 1 1.291.4 21.206 21.206 0 0 1 1.863 4.358 20.042 20.042 0 0 0 .026-7.055 2.883 2.883 0 0 1 .465-2.75 5.378 5.378 0 0 0 .867-2.3c.036-.26-.029-.336-.051-.361-.05-.059-.365-.355-1.571-.367a8.829 8.829 0 0 1 -5.076-1.69 12.031 12.031 0 0 0 -7.115-2.477z"/><path d="m53.878 103.841h-3.85a1 1 0 0 1 0-2h3.85a3.3 3.3 0 0 0 3.292-3.292v-25.642a9.8 9.8 0 0 0 -9.791-9.791h-3.31a16.891 16.891 0 0 1 -18.646 0h-3.343a9.8 9.8 0 0 0 -9.791 9.791v25.642a3.3 3.3 0 0 0 3.292 3.292h3.849a1 1 0 0 1 0 2h-3.849a5.3 5.3 0 0 1 -5.292-5.292v-25.642a11.8 11.8 0 0 1 11.791-11.791h3.645a1 1 0 0 1 .56.172 14.851 14.851 0 0 0 8.456 2.634 15.006 15.006 0 0 0 8.472-2.637 1 1 0 0 1 .557-.169h3.609a11.8 11.8 0 0 1 11.791 11.791v25.642a5.3 5.3 0 0 1 -5.292 5.292z"/><path d="m34.785 61.036c-6.646 0-12.348-6.181-13.862-15.031a1 1 0 1 1 1.971-.338c1.347 7.872 6.238 13.369 11.891 13.369s10.552-5.5 11.9-13.369a1 1 0 1 1 1.97.338c-1.514 8.85-7.218 15.031-13.87 15.031z"/><path d="m27.1 140.111a8.65 8.65 0 0 1 -8.65-8.635l-.02-56.782a1 1 0 0 1 1-1 1 1 0 0 1 1 1l.017 56.781a6.649 6.649 0 0 0 6.65 6.637h.011a6.659 6.659 0 0 0 6.639-6.662l-.047-28.608a1 1 0 0 1 1-1 1 1 0 0 1 1 1l.048 28.608a8.66 8.66 0 0 1 -8.635 8.664z"/><path d="m42.4 140.085a8.66 8.66 0 0 1 -8.649-8.636l-.051-28.607a1 1 0 0 1 1-1 1 1 0 0 1 1 1l.048 28.608a6.649 6.649 0 0 0 6.649 6.638h.011a6.659 6.659 0 0 0 6.639-6.662l-.018-56.729a1 1 0 0 1 1-1 1 1 0 0 1 1 1l.018 56.728a8.66 8.66 0 0 1 -8.635 8.664z"/><path d="m25.722 63.114a1 1 0 0 1 -.755-1.656l3.359-3.864a1 1 0 0 1 1.51 1.312l-3.359 3.864a1 1 0 0 1 -.755.344z"/><path d="m43.848 63.114a1 1 0 0 1 -.755-.344l-3.36-3.864a1 1 0 0 1 1.51-1.312l3.36 3.864a1 1 0 0 1 -.755 1.656z"/><path d="m138.711 80.717h-80.541a1 1 0 0 1 0-2h79.541v-66.828h-97v11.521a1 1 0 0 1 -2 0v-12.521a1 1 0 0 1 1-1h99a1 1 0 0 1 1 1v68.828a1 1 0 0 1 -1 1z"/><path d="m133.711 75.717h-75.541a1 1 0 0 1 0-2h74.541v-56.828h-87v9.276a1 1 0 1 1 -2 0v-10.276a1 1 0 0 1 1-1h89a1 1 0 0 1 1 1v58.828a1 1 0 0 1 -1 1z"/><path d="m113.229 86.593h-48.036a1 1 0 0 1 -1-1v-5.876a1 1 0 0 1 1-1h48.036a1 1 0 0 1 1 1v5.876a1 1 0 0 1 -1 1zm-47.036-2h46.036v-3.876h-46.036z"/><path d="m67.894 112.177h-6.461a1 1 0 0 1 -.883-1.471l13.631-25.583a1 1 0 0 1 .882-.53h6.46a1 1 0 0 1 .883 1.47l-13.63 25.584a1 1 0 0 1 -.882.53zm-4.8-2h4.194l12.569-23.584h-4.193z"/><path d="m116.989 112.177h-6.461a1 1 0 0 1 -.882-.53l-13.63-25.584a1 1 0 0 1 .882-1.47h6.46a1 1 0 0 1 .883.53l13.631 25.583a1 1 0 0 1 -.883 1.471zm-5.86-2h4.194l-12.565-23.584h-4.194z"/><path d="m92.009 112.177h-5.6a1 1 0 0 1 -1-1v-25.584a1 1 0 0 1 1-1h5.6a1 1 0 0 1 1 1v25.584a1 1 0 0 1 -1 1zm-4.6-2h3.6v-23.584h-3.6z"/><path d="m126.836 45.293h-21.875a1 1 0 0 1 -1-1v-18.433a1 1 0 0 1 1-1h21.875a1 1 0 0 1 1 1v18.433a1 1 0 0 1 -1 1zm-20.875-2h19.875v-16.433h-19.875z"/><path d="m97.263 26.989h-39.093a1 1 0 0 1 0-2h39.093a1 1 0 0 1 0 2z"/><path d="m97.263 36.678h-39.093a1 1 0 0 1 0-2h39.093a1 1 0 0 1 0 2z"/><path d="m97.263 46.368h-39.093a1 1 0 0 1 0-2h39.093a1 1 0 0 1 0 2z"/><path d="m126.836 56.057h-68.666a1 1 0 0 1 0-2h68.666a1 1 0 0 1 0 2z"/><path d="m126.836 65.747h-68.666a1 1 0 0 1 0-2h68.666a1 1 0 0 1 0 2z"/><path d="m100.528 128.779a7.619 7.619 0 1 1 5.1-1.981 7.537 7.537 0 0 1 -5.1 1.981zm0-13.168a5.59 5.59 0 0 0 -5.584 5.584 5.591 5.591 0 0 0 11.182 0 5.6 5.6 0 0 0 -5.598-5.584z"/><path d="m113.9 140.085h-26.731a1 1 0 0 1 -.995-.9 4.608 4.608 0 0 1 -.032-.5 14.414 14.414 0 0 1 9.62-13.577 1 1 0 0 1 1.008.206 5.563 5.563 0 0 0 7.513 0 1 1 0 0 1 1.013-.21 14.412 14.412 0 0 1 9.619 13.577c0 .086 0 .168-.008.25l-.006.147a1 1 0 0 1 -1.001 1.007zm-25.745-2h24.745a12.411 12.411 0 0 0 -7.738-10.887 7.574 7.574 0 0 1 -9.264 0 12.414 12.414 0 0 0 -7.742 10.887z"/><path d="m81.523 127.392a6.42 6.42 0 1 1 4.3-1.668 6.353 6.353 0 0 1 -4.3 1.668zm0-10.781a4.4 4.4 0 0 0 -4.39 4.389 4.326 4.326 0 0 0 1.431 3.238 4.483 4.483 0 0 0 5.911.007 4.38 4.38 0 0 0 -2.952-7.636z"/><path d="m87.491 140.085h-13.146a4.783 4.783 0 0 1 -4.784-4.759 11.979 11.979 0 0 1 8-11.289 1 1 0 0 1 1.006.206 4.489 4.489 0 0 0 5.906 0 1 1 0 0 1 1.011-.21 11.984 11.984 0 0 1 6.165 4.934 1 1 0 1 1 -1.695 1.06 9.976 9.976 0 0 0 -4.612-3.907 6.534 6.534 0 0 1 -7.638 0 9.974 9.974 0 0 0 -6.142 9.2 2.78 2.78 0 0 0 2.784 2.764h13.145a1 1 0 1 1 0 2z"/><path d="m119.533 127.392a6.42 6.42 0 0 1 -6.4-6.39 6.4 6.4 0 0 1 12.793 0 6.4 6.4 0 0 1 -6.391 6.39zm0-10.781a4.4 4.4 0 0 0 -4.4 4.391 4.348 4.348 0 0 0 1.438 3.234 4.474 4.474 0 0 0 5.918.008 4.322 4.322 0 0 0 1.435-3.244 4.4 4.4 0 0 0 -4.391-4.389z"/><path d="m126.707 140.085h-13.146a1 1 0 0 1 0-2h13.146a2.781 2.781 0 0 0 2.784-2.762 9.975 9.975 0 0 0 -6.142-9.2 6.532 6.532 0 0 1 -7.637 0 9.963 9.963 0 0 0 -4.613 3.907 1 1 0 1 1 -1.7-1.06 11.99 11.99 0 0 1 6.166-4.934 1 1 0 0 1 1.012.21 4.487 4.487 0 0 0 5.9 0 1 1 0 0 1 1.007-.206 11.978 11.978 0 0 1 8 11.284 4.784 4.784 0 0 1 -4.777 4.761z"/></svg>