<svg id="Layer_1" viewBox="0 0 150 150" fill="#025add" xmlns="http://www.w3.org/2000/svg" data-name="Layer 1"><path d="m120.75 105.373h-30.95a1 1 0 0 1 0-2h30.95a17.243 17.243 0 0 0 5.294-33.657 1 1 0 0 1 -.672-1.162 17.412 17.412 0 0 0 .408-3.681 17.023 17.023 0 0 0 -26.48-14.16 1 1 0 0 1 -1.558-.83l.01-.51a22.746 22.746 0 0 0 -45.289-3.037 1 1 0 0 1 -1.53.709 17.035 17.035 0 0 0 -24.891 20.932 1 1 0 0 1 -.7 1.36 17.24 17.24 0 0 0 3.9 34.036h22.048a1 1 0 1 1 0 2h-22.04a19.242 19.242 0 0 1 -5.463-37.694 19.019 19.019 0 0 1 26.933-23.079 24.747 24.747 0 0 1 49 3.52 19.006 19.006 0 0 1 27.78 19.98 19.245 19.245 0 0 1 -6.747 37.27zm-38.5 0h-23.41a1 1 0 0 1 0-2h23.41a1 1 0 0 1 0 2z"/><path d="m28.882 60.372a1.021 1.021 0 0 1 -.155-.012 1 1 0 0 1 -.834-1.142 14.032 14.032 0 0 1 10.207-11.374 1 1 0 1 1 .521 1.93 12.034 12.034 0 0 0 -8.753 9.752 1 1 0 0 1 -.986.846z"/><path d="m56.909 45.529a.962.962 0 0 1 -.259-.035 1 1 0 0 1 -.708-1.224 19.763 19.763 0 0 1 19.058-14.643 1 1 0 0 1 0 2 17.76 17.76 0 0 0 -17.126 13.16 1 1 0 0 1 -.965.742z"/><path d="m121.78 65.877a1 1 0 0 1 -1-1 12.044 12.044 0 0 0 -12.03-12.031 1 1 0 0 1 0-2 14.046 14.046 0 0 1 14.03 14.031 1 1 0 0 1 -1 1z"/><path d="m55.067 125.377a1 1 0 0 1 -.831-.444l-8.2-12.247a1 1 0 0 1 .831-1.556h3.421v-26.753a1 1 0 0 1 1-1h7.551a1 1 0 0 1 1 1v26.753h3.421a1 1 0 0 1 .831 1.556l-8.2 12.247a1 1 0 0 1 -.824.444zm-6.323-12.247 6.323 9.449 6.325-9.449h-2.549a1 1 0 0 1 -1-1v-26.753h-5.551v26.753a1 1 0 0 1 -1 1z"/><path d="m89.8 125.377h-7.55a1 1 0 0 1 -1-1v-26.754h-3.422a1 1 0 0 1 -.828-1.556l8.2-12.246a1.038 1.038 0 0 1 1.662 0l8.2 12.246a1 1 0 0 1 -.831 1.556h-3.431v26.754a1 1 0 0 1 -1 1zm-6.55-2h5.55v-26.754a1 1 0 0 1 1-1h2.549l-6.324-9.448-6.325 9.448h2.55a1 1 0 0 1 1 1z"/></svg>